<svg width="67" height="68" viewBox="0 0 67 68" fill="none" xmlns="http://www.w3.org/2000/svg">
<path fill-rule="evenodd" clip-rule="evenodd" d="M66.8337 33.9993C66.8337 52.4093 51.9103 67.3327 33.5003 67.3327C15.0903 67.3327 0.166992 52.4093 0.166992 33.9993C0.166992 15.5893 15.0903 0.666016 33.5003 0.666016C51.9103 0.666016 66.8337 15.5893 66.8337 33.9993ZM20.537 46.9627C20.2245 46.6501 20.049 46.2263 20.049 45.7843C20.049 45.3424 20.2245 44.9186 20.537 44.606L31.1437 33.9993L20.537 23.3927C20.2334 23.0783 20.0654 22.6573 20.0692 22.2203C20.073 21.7833 20.2483 21.3653 20.5573 21.0563C20.8663 20.7473 21.2843 20.572 21.7213 20.5682C22.1583 20.5644 22.5793 20.7324 22.8937 21.036L33.5003 31.6427L44.107 21.036C44.4213 20.7324 44.8423 20.5644 45.2793 20.5682C45.7163 20.572 46.1343 20.7473 46.4434 21.0563C46.7524 21.3653 46.9277 21.7833 46.9314 22.2203C46.9352 22.6573 46.7673 23.0783 46.4637 23.3927L35.857 33.9993L46.4637 44.606C46.7673 44.9204 46.9352 45.3414 46.9314 45.7784C46.9277 46.2153 46.7524 46.6334 46.4434 46.9424C46.1343 47.2514 45.7163 47.4267 45.2793 47.4305C44.8423 47.4343 44.4213 47.2663 44.107 46.9627L33.5003 36.356L22.8937 46.9627C22.5811 47.2751 22.1573 47.4507 21.7153 47.4507C21.2734 47.4507 20.8495 47.2751 20.537 46.9627Z" fill="#9B2FAC"/>
</svg>
