<svg width="14" height="13" viewBox="0 0 14 13" fill="none" xmlns="http://www.w3.org/2000/svg">
<path d="M6.65311 0.832678C6.6813 0.763898 6.72932 0.705061 6.79105 0.66365C6.85279 0.62224 6.92544 0.600128 6.99977 0.600128C7.07411 0.600128 7.14676 0.62224 7.2085 0.66365C7.27023 0.705061 7.31825 0.763898 7.34644 0.832678L8.76311 4.24001C8.78963 4.30377 8.83322 4.35897 8.88909 4.39955C8.94496 4.44013 9.01094 4.46451 9.07977 4.47001L12.7584 4.76468C13.0911 4.79134 13.2258 5.20668 12.9724 5.42334L10.1698 7.82468C10.1174 7.86947 10.0784 7.92782 10.057 7.99331C10.0356 8.05881 10.0326 8.12894 10.0484 8.19601L10.9051 11.786C10.9223 11.858 10.9178 11.9335 10.8921 12.003C10.8665 12.0725 10.8208 12.1328 10.7609 12.1763C10.7009 12.2198 10.6295 12.2446 10.5555 12.2475C10.4815 12.2504 10.4083 12.2313 10.3451 12.1927L7.19511 10.2693C7.13627 10.2335 7.06868 10.2145 6.99977 10.2145C6.93086 10.2145 6.86328 10.2335 6.80444 10.2693L3.65444 12.1933C3.59128 12.232 3.51808 12.2511 3.44408 12.2482C3.37008 12.2452 3.29861 12.2205 3.23869 12.177C3.17877 12.1334 3.13308 12.0731 3.10741 12.0037C3.08174 11.9342 3.07722 11.8587 3.09444 11.7867L3.95111 8.19601C3.967 8.12894 3.96408 8.05879 3.94267 7.99328C3.92126 7.92776 3.8822 7.86942 3.82977 7.82468L1.02711 5.42334C0.970984 5.37509 0.930382 5.31131 0.910408 5.24003C0.890434 5.16876 0.89198 5.09317 0.914852 5.02278C0.937724 4.95238 0.980901 4.89031 1.03895 4.84439C1.097 4.79847 1.16734 4.77073 1.24111 4.76468L4.91978 4.47001C4.98861 4.46451 5.05459 4.44013 5.11046 4.39955C5.16633 4.35897 5.20992 4.30377 5.23644 4.24001L6.65311 0.833344V0.832678Z" stroke="#8DADE0" stroke-linecap="round" stroke-linejoin="round"/>
</svg>
